# xmcd
#
# Track frame offsets:
#	150
#	13210
#	29895
#	45010
#	58312
#	72557
#	85995
#	105770
#	122570
#	135765
#	152262
#	168722
#	182535
#	198967
#
# Disc length: 2836 seconds
#
# Revision: 0
# Processed by: cddbd v1.5.1PL0 Copyright (c) Steve Scherf et al.
# Submitted via: dBpowerAMP V4.0
#
DISCID=b00b120e
DTITLE=Linda Feller and Muck - Hey kleine Linda
DYEAR=2000
DGENRE=Country
TTITLE0=Hey kleine Linda
TTITLE1=We've got tonight
TTITLE2=Weil Du mich liebst
TTITLE3=Stop and go
TTITLE4=Es bleibt die Liebe zu Dir
TTITLE5=Kleine Träume leben länger
TTITLE6=Sometimes when we touch
TTITLE7=Islands in the stream
TTITLE8=Wenn du alles verlierst
TTITLE9=Es weht ein Traum
TTITLE10=So wie ich eigentlich bin
TTITLE11=Auf dem Weg durch die Nacht
TTITLE12=Musst Du jetzt gerade gehen Lucille
TTITLE13=Du weisst, was Frauen lieben
EXTD=
EXTT0=
EXTT1=
EXTT2=
EXTT3=
EXTT4=
EXTT5=
EXTT6=
EXTT7=
EXTT8=
EXTT9=
EXTT10=
EXTT11=
EXTT12=
EXTT13=
PLAYORDER=
